<svg width="335" height="351" viewBox="0 0 335 351" fill="none" xmlns="http://www.w3.org/2000/svg">
<g clip-path="url(#clip0_913_53)">
<path fill-rule="evenodd" clip-rule="evenodd" d="M214.701 1.69132L21.056 15.9515C5.44153 17.3038 0 27.4904 0 39.7027V251.505C0 261.021 3.3919 269.154 11.5487 280.025L57.0693 339.086C64.5464 348.596 71.3416 350.63 85.6192 349.949L310.498 336.37C329.518 335.019 334.958 326.187 334.958 311.253V72.9699C334.958 65.2504 331.904 63.0204 322.899 56.4468C322.404 56.0851 321.891 55.7103 321.359 55.3207L259.545 11.8752C244.599 1.01796 238.481 -0.348239 214.701 1.69132ZM90.718 69.0615C72.3581 70.3012 68.1862 70.5829 57.7599 62.1128L31.2457 41.0687C28.5415 38.3475 29.8978 34.953 36.6871 34.2797L222.855 20.7011C238.478 19.3405 246.629 24.7802 252.747 29.53L284.678 52.6133C286.038 53.2894 289.429 57.3575 285.351 57.3575L93.0882 68.9021C92.2729 68.9565 91.4837 69.0098 90.719 69.0614L90.718 69.0615ZM69.3031 309.213V106.919C69.3031 98.0956 72.021 94.0195 80.1694 93.3348L300.977 80.4408C308.466 79.762 311.857 84.5173 311.857 93.3348V294.271C311.857 303.103 310.495 310.581 298.261 311.253L86.9643 323.479C74.7361 324.152 69.3031 320.085 69.3031 309.213ZM277.894 117.771C279.249 123.887 277.894 129.997 271.768 130.684L261.586 132.712V282.059C252.747 286.81 244.596 289.526 237.804 289.526C226.929 289.526 224.206 286.129 216.06 275.951L149.467 171.408V272.557L170.539 277.312C170.539 277.312 170.539 289.526 153.538 289.526L106.67 292.244C105.308 289.526 106.67 282.743 111.424 281.383L123.654 277.994V144.257L106.672 142.896C105.311 136.781 108.703 127.963 118.221 127.278L168.501 123.889L237.804 229.793V136.107L220.135 134.079C218.778 126.602 224.206 121.173 231.001 120.5L277.894 117.771Z" fill="white"/>
</g>
<defs>
<clipPath id="clip0_913_53">
<rect width="335" height="349.948" fill="white" transform="translate(0 0.89502)"/>
</clipPath>
</defs>
</svg>
