<svg width="335" height="351" viewBox="0 0 335 351" fill="none" xmlns="http://www.w3.org/2000/svg">
<g clip-path="url(#clip0_910_14)">
<path fill-rule="evenodd" clip-rule="evenodd" d="M214.701 1.74381L21.056 16.004C5.44153 17.3563 0 27.5429 0 39.7552V251.557C0 261.073 3.3919 269.207 11.5487 280.078L57.0693 339.138C64.5464 348.648 71.3416 350.683 85.6192 350.002L310.498 336.422C329.518 335.071 334.958 326.239 334.958 311.306V73.0224C334.958 65.3029 331.904 63.0729 322.899 56.4993C322.404 56.1376 321.891 55.7628 321.359 55.3732L259.545 11.9277C244.599 1.07045 238.481 -0.295749 214.701 1.74381ZM90.718 69.1139C72.3581 70.3537 68.1862 70.6354 57.7599 62.1652L31.2457 41.1212C28.5415 38.4 29.8978 35.0054 36.6871 34.3322L222.855 20.7536C238.478 19.393 246.629 24.8327 252.747 29.5825L284.678 52.6658C286.038 53.3419 289.429 57.41 285.351 57.41L93.0882 68.9546C92.2729 69.009 91.4837 69.0622 90.719 69.1139L90.718 69.1139ZM69.3031 309.265V106.971C69.3031 98.1481 72.021 94.072 80.1694 93.3873L300.977 80.4933C308.466 79.8145 311.857 84.5698 311.857 93.3873V294.323C311.857 303.155 310.495 310.633 298.261 311.306L86.9643 323.532C74.7361 324.204 69.3031 320.137 69.3031 309.265ZM277.894 117.823C279.249 123.939 277.894 130.049 271.768 130.737L261.586 132.765V282.111C252.747 286.862 244.596 289.578 237.804 289.578C226.929 289.578 224.206 286.181 216.06 276.004L149.467 171.461V272.609L170.539 277.365C170.539 277.365 170.539 289.578 153.538 289.578L106.67 292.297C105.308 289.578 106.67 282.795 111.424 281.436L123.654 278.046V144.31L106.672 142.949C105.311 136.833 108.703 128.015 118.221 127.331L168.501 123.942L237.804 229.846V136.16L220.135 134.131C218.778 126.655 224.206 121.226 231.001 120.553L277.894 117.823Z" fill="black"/>
</g>
<defs>
<clipPath id="clip0_910_14">
<rect width="335" height="349.948" fill="white" transform="translate(0 0.94751)"/>
</clipPath>
</defs>
</svg>
